<svg version="1.1" id="Layer_1" xmlns="http://www.w3.org/2000/svg" xmlns:xlink="http://www.w3.org/1999/xlink" x="0px" y="0px"
	 width="100%" viewBox="0 0 1366 348" enable-background="new 0 0 1366 348" xml:space="preserve">
<path fill="#FFFFFF" opacity="1.000000" stroke="none" 
	d="
M1.000000,261.000000 
	C1.000000,174.358780 1.000000,87.717552 1.000000,1.000000 
	C404.689331,1.000000 808.378662,1.000000 1212.340088,1.363454 
	C1209.535522,2.161752 1206.409058,2.377965 1203.390503,3.066872 
	C1183.578125,7.588590 1169.643921,19.008879 1162.909668,38.429638 
	C1160.006226,46.802666 1157.677490,55.375050 1155.176025,63.567581 
	C1150.481201,64.054863 1145.865845,64.324142 1141.348633,65.137680 
	C1140.085205,65.365242 1138.379272,67.048843 1138.121582,68.317596 
	C1136.343018,77.067657 1134.894531,85.884796 1133.240112,95.245316 
	C1138.694580,95.245316 1143.774292,95.245316 1149.983032,95.245316 
	C1139.332031,152.092712 1128.812012,208.240784 1118.219727,264.774750 
	C1132.297485,264.774750 1145.054077,264.774750 1158.001587,264.774750 
	C1168.766479,208.103714 1179.492798,151.635498 1190.263184,94.935127 
	C1199.003296,94.935127 1207.296021,94.935127 1216.043213,94.935127 
	C1217.931519,85.036621 1219.775513,75.370033 1221.671997,65.428619 
	C1212.546509,64.824280 1204.518677,64.292625 1195.810669,63.715923 
	C1196.235962,61.313789 1196.419800,59.093964 1197.033447,57.000137 
	C1201.041870,43.324165 1208.741943,30.841692 1227.998779,35.754864 
	C1229.325195,36.093300 1232.374268,34.224384 1232.786255,32.836792 
	C1234.859985,25.854084 1236.830688,18.762981 1237.862305,11.570035 
	C1238.944336,4.025662 1238.029297,3.423511 1230.524536,2.003596 
	C1229.329102,1.777424 1228.173828,1.339851 1227.000000,1.000012 
	C1273.611450,1.000000 1320.223022,1.000000 1367.000000,1.000000 
	C1367.000000,76.022560 1367.000000,151.045242 1366.531372,226.533539 
	C1309.607422,226.999161 1253.152222,226.999161 1196.115479,226.999161 
	C1193.734009,239.575836 1191.368530,252.067810 1189.062866,264.244476 
	C1247.397949,264.244476 1305.541382,264.244476 1363.740601,264.244476 
	C1364.200439,258.236725 1364.479492,252.994766 1365.037231,247.782623 
	C1365.530640,243.171204 1366.333740,238.592926 1367.000000,234.000000 
	C1367.000000,272.269531 1367.000000,310.539032 1367.000000,349.000000 
	C1318.977539,349.000000 1270.954712,349.000000 1222.607544,348.648193 
	C1229.078735,346.832947 1234.325562,343.537384 1236.228882,336.373260 
	C1238.175781,329.045349 1240.213501,321.737213 1241.941284,314.357239 
	C1242.946167,310.065399 1243.420654,305.649384 1244.180664,301.002075 
	C1241.108887,301.002075 1238.868408,300.643585 1236.826172,301.125610 
	C1235.416504,301.458344 1233.520630,302.734894 1233.165771,303.970032 
	C1232.096680,307.690308 1231.789429,311.621155 1230.974976,315.424866 
	C1229.689941,321.427277 1228.510864,327.475342 1226.766602,333.349579 
	C1225.244629,338.475586 1218.591431,341.450745 1213.511719,339.779755 
	C1209.228027,338.370575 1208.222046,335.067139 1209.080566,331.139404 
	C1211.252441,321.201721 1213.613770,311.305450 1215.947632,301.182709 
	C1212.321289,301.182709 1208.868164,301.182709 1205.267090,301.182709 
	C1203.495117,308.840210 1201.606079,316.355652 1200.059326,323.940857 
	C1199.192383,328.192261 1198.011353,332.669678 1198.535645,336.849121 
	C1199.398071,343.723785 1204.696899,347.132263 1211.000000,349.000000 
	C919.310669,349.000000 627.621399,349.000000 335.609924,348.645660 
	C343.749084,347.108093 348.529968,341.694946 350.492554,333.945343 
	C353.233307,323.122803 355.357330,312.144043 357.752533,301.198944 
	C353.867920,301.198944 350.572571,301.198944 347.037811,301.198944 
	C346.004181,306.244568 345.074371,311.165009 343.975739,316.047485 
	C342.668182,321.858337 341.466614,327.712250 339.749878,333.406006 
	C338.259949,338.347748 332.120728,341.218109 326.943634,339.941742 
	C323.010406,338.972046 321.045624,335.651489 322.068542,331.122955 
	C324.306732,321.214050 326.698395,311.339783 329.087036,301.197937 
	C325.335785,301.197937 321.888214,301.197937 318.305542,301.197937 
	C316.531525,308.653351 314.645203,315.992828 313.078156,323.399811 
	C312.217957,327.465820 311.182343,331.699005 311.486298,335.762543 
	C312.042725,343.202057 317.301910,346.962280 324.000000,349.000000 
	C216.447754,349.000000 108.895515,349.000000 1.000000,349.000000 
	C1.000000,321.311646 1.000000,293.621857 1.468655,265.467682 
	C361.058899,265.003296 720.180481,265.003296 1079.835083,265.003296 
	C1082.236572,252.423721 1084.619629,239.940964 1087.090210,226.999817 
	C1084.740845,226.999817 1082.766602,226.999817 1080.792358,226.999817 
	C725.492126,226.999573 370.191864,226.999329 14.891600,226.999466 
	C13.558419,226.999466 12.039824,226.600922 10.937646,227.106934 
	C9.464277,227.783356 7.561947,228.942703 7.168676,230.283325 
	C6.077686,234.002426 5.741041,237.936356 4.981263,241.760544 
	C3.705107,248.183823 2.332201,254.587860 1.000000,261.000000 
M41.074280,61.725693 
	C39.984375,68.297684 39.012234,74.891838 37.779907,81.437012 
	C35.260448,94.818398 32.622883,108.177711 29.993834,121.538223 
	C26.799442,137.771729 23.483463,153.981766 20.378090,170.232132 
	C18.711201,178.954956 17.375441,187.741043 15.775510,197.175217 
	C32.411079,198.138412 48.485569,199.210541 64.576141,199.915527 
	C69.476776,200.130249 74.419312,199.093262 79.346809,199.043854 
	C96.288063,198.873962 112.609016,195.691025 128.575211,190.047653 
	C152.876053,181.458313 170.162979,165.006256 180.878128,142.100021 
	C191.195648,120.043808 195.835754,96.748833 191.019974,72.255577 
	C187.347092,53.575188 177.702759,38.710796 162.092621,28.064762 
	C147.052216,17.807278 129.640610,14.087953 111.867744,13.204887 
	C97.997124,12.515711 84.029076,13.517179 70.116600,14.074186 
	C64.589790,14.295461 59.035820,15.054882 53.622128,16.183088 
	C51.877823,16.546598 49.525459,18.662916 49.180824,20.334055 
	C46.397198,33.831936 44.026138,47.414898 41.074280,61.725693 
M872.009460,185.620483 
	C873.006714,181.036224 874.161987,176.479645 874.970886,171.862396 
	C877.158020,159.377731 878.780579,146.778824 881.405640,134.390213 
	C884.444092,120.051262 887.108887,105.663300 885.836975,91.031464 
	C884.926208,80.553215 880.976318,71.374992 870.734802,65.865349 
	C855.292664,57.557953 840.727844,61.014088 826.826172,68.961609 
	C819.861145,72.943504 813.951294,78.771027 807.590332,83.743446 
	C801.570374,66.632271 790.432068,61.732105 776.573792,61.231285 
	C765.770447,60.840870 755.255310,63.925442 746.224365,70.361015 
	C741.005249,74.080193 736.180054,78.352104 731.083130,82.451210 
	C731.458374,76.614235 731.822449,70.951958 732.194275,65.167709 
	C720.395569,65.167709 709.441223,65.167709 698.492065,65.167709 
	C690.638733,109.736206 682.814453,154.139969 675.085999,197.999786 
	C686.434143,197.999786 697.493042,197.773651 708.534119,198.118607 
	C712.568420,198.244659 714.294739,196.574036 714.932739,193.149277 
	C717.011902,181.990356 718.825012,170.779831 721.040527,159.648880 
	C723.535034,147.116150 725.549744,134.402435 729.266785,122.223282 
	C732.784912,110.695602 739.454163,100.697739 750.889832,95.061409 
	C757.591064,91.758583 765.178284,95.653778 767.051086,102.789650 
	C769.003174,110.227394 767.442688,117.365967 766.017456,124.578590 
	C762.401489,142.877945 758.702942,161.162064 755.265503,179.495010 
	C754.081238,185.811279 753.571289,192.253967 752.835693,197.995758 
	C765.355286,197.995758 777.082825,198.084686 788.803772,197.848312 
	C789.890015,197.826416 791.632141,195.879639 791.894653,194.587814 
	C796.383301,172.498306 800.132812,150.241592 805.263306,128.306641 
	C807.843445,117.275658 812.462952,106.643013 821.636414,98.828850 
	C826.689270,94.524635 834.153748,92.776634 838.827087,94.872688 
	C843.486938,96.962730 846.726807,106.422073 845.929504,111.649208 
	C844.754456,119.353218 843.383606,127.029213 841.985046,134.696869 
	C839.161621,150.176437 836.208923,165.632568 833.423950,181.118942 
	C832.376709,186.941895 831.646851,192.821945 830.670654,199.356735 
	C840.465759,198.869324 849.198547,198.221786 857.940491,198.052917 
	C869.223267,197.835007 869.226868,198.000000 871.990540,186.988815 
	C872.029968,186.831665 871.998596,186.656723 872.009460,185.620483 
M434.890503,153.644196 
	C438.075745,150.785446 441.311798,147.980743 444.429657,145.050293 
	C446.780060,142.841141 447.878937,144.336166 448.720093,146.385941 
	C455.465454,162.822784 462.364624,179.201782 468.717529,195.789673 
	C469.885773,198.840195 471.300964,199.016190 473.699921,199.011734 
	C484.528564,198.991592 495.357269,199.008484 506.185974,199.011673 
	C508.753815,199.012436 511.321655,199.011795 514.129456,199.011795 
	C513.917664,197.646057 513.958252,196.943634 513.699158,196.378616 
	C507.699890,183.294968 501.699707,170.211502 495.632629,157.159180 
	C490.370636,145.838974 485.064026,134.539062 479.691315,123.271111 
	C478.336487,120.429665 478.942871,118.288513 481.192963,116.272209 
	C485.497498,112.414986 489.814087,108.563889 493.968262,104.547485 
	C506.610291,92.324806 519.184998,80.032410 531.749756,67.730202 
	C532.343323,67.149025 532.588867,66.212402 533.266663,64.930275 
	C525.915833,64.589325 519.180847,64.048920 512.444946,64.036415 
	C507.023376,64.026360 501.604492,64.769753 496.176819,64.951256 
	C493.473206,65.041656 490.202698,63.577961 488.156982,64.655556 
	C484.212921,66.733109 480.419128,69.654182 477.508972,73.038834 
	C465.401215,87.120529 453.645660,101.505020 441.760864,115.778419 
	C441.399170,115.633179 441.037476,115.487938 440.675781,115.342697 
	C447.495544,78.362465 454.315308,41.382236 461.085052,4.673165 
	C447.471130,4.673165 434.458099,4.673165 421.418976,4.673165 
	C409.246002,69.796967 397.199402,134.244553 385.222107,198.321472 
	C398.596771,198.321472 411.651764,198.321472 424.925049,198.321472 
	C426.698700,188.931488 428.228546,180.160995 430.045288,171.450333 
	C431.257629,165.637589 432.878601,159.910049 434.890503,153.644196 
M1231.416870,181.919800 
	C1244.080200,197.263870 1260.931641,203.088943 1280.092896,201.765030 
	C1289.365967,201.124344 1298.788452,198.905167 1307.579224,195.802780 
	C1325.856201,189.352539 1339.136475,176.539368 1347.288574,159.138885 
	C1354.784180,143.139694 1358.543579,126.259399 1356.104858,108.244576 
	C1353.672119,90.273567 1345.250488,76.547874 1329.201660,68.112976 
	C1314.937866,60.616173 1299.373535,60.147636 1284.060181,63.176620 
	C1259.957764,67.944084 1241.559937,81.439919 1230.035034,103.276001 
	C1222.110107,118.291580 1219.149902,134.400208 1220.803955,151.570724 
	C1221.857544,162.507965 1225.434692,172.142334 1231.416870,181.919800 
M532.923767,171.555435 
	C537.260742,182.594696 545.338196,190.042542 555.709656,195.288208 
	C568.371704,201.692398 581.618591,203.149765 595.642761,201.103317 
	C622.664612,197.160263 642.220703,182.632294 654.388733,158.845184 
	C662.489929,143.008469 665.787231,125.804428 663.123596,107.642883 
	C660.505005,89.788269 652.008301,76.202354 635.962341,68.101479 
	C622.078796,61.092316 607.265991,59.673378 591.874390,62.877296 
	C566.449402,68.169777 547.867004,82.273613 536.354980,105.394135 
	C531.277222,115.592102 528.898743,126.578659 527.741699,138.073166 
	C526.576538,149.648422 528.330322,160.350296 532.923767,171.555435 
M1106.939941,77.717796 
	C1103.093750,69.574623 1096.272339,64.774231 1087.871582,63.123455 
	C1068.894653,59.394501 1051.749512,63.132843 1037.871948,77.608604 
	C1036.002197,79.558990 1033.996582,81.379227 1032.053955,83.259735 
	C1031.644653,83.048889 1031.235229,82.838043 1030.825928,82.627197 
	C1031.135986,76.859360 1031.446167,71.091522 1031.755981,65.326767 
	C1019.640259,65.326767 1007.908813,65.326767 997.383423,65.326767 
	C989.114258,110.114983 980.942566,154.375122 972.888184,197.999954 
	C984.268738,197.999954 994.841431,197.999878 1005.414124,197.999969 
	C1012.657166,198.000031 1012.712097,198.010742 1014.069946,190.963043 
	C1016.750793,177.048935 1019.191650,163.086197 1022.055664,149.210419 
	C1024.777954,136.021149 1027.416260,122.787819 1034.482788,110.947823 
	C1038.927612,103.500458 1044.760864,97.861374 1052.853760,94.599510 
	C1059.424072,91.951302 1064.667725,94.472557 1067.104736,100.977585 
	C1070.131104,109.055641 1069.056274,117.341385 1067.776123,125.257271 
	C1064.837524,143.425903 1060.729858,161.402893 1057.289917,179.494354 
	C1056.087891,185.815674 1055.451294,192.244507 1054.612549,198.225647 
	C1068.728149,198.225647 1081.744507,198.225647 1094.478516,198.225647 
	C1094.996338,195.467255 1095.342773,193.542648 1095.719971,191.624054 
	C1099.144531,174.208267 1102.746460,156.825027 1105.939575,139.366974 
	C1107.934326,128.461227 1109.909424,117.490616 1110.790039,106.461029 
	C1111.542725,97.034698 1112.204590,87.278496 1106.939941,77.717796 
M304.030945,71.457298 
	C299.630981,75.531143 294.450623,79.036156 290.984894,83.790977 
	C282.361420,95.621933 280.178131,108.584267 287.039062,122.227562 
	C291.756226,131.607986 300.125641,136.925888 308.793030,142.022522 
	C314.373291,145.303833 320.167877,148.503326 324.972748,152.750519 
	C331.261536,158.309387 328.766144,167.170792 320.833099,169.995911 
	C314.313171,172.317841 307.707428,172.407547 301.185211,170.538544 
	C292.999969,168.193039 284.942688,165.401154 276.407837,162.666595 
	C273.752350,171.234283 271.354431,179.594086 268.518677,187.802612 
	C267.438049,190.930588 268.327179,192.369629 271.013763,193.606934 
	C281.589508,198.477524 292.716766,201.297943 304.290894,201.933395 
	C316.826202,202.621582 329.111237,200.881226 340.748047,195.967667 
	C354.605774,190.116333 364.896057,180.727997 368.662262,165.629974 
	C371.368683,154.780243 370.674591,144.166443 363.936066,134.789505 
	C358.640686,127.420761 350.603333,123.426933 342.986694,118.946594 
	C337.680389,115.825279 332.103973,112.867310 327.567902,108.808548 
	C322.093567,103.910263 322.936951,96.943291 328.917511,94.125725 
	C334.999512,91.260384 341.484955,89.835403 348.345764,91.686234 
	C354.996826,93.480461 361.726868,94.981712 368.701477,96.679619 
	C371.331604,87.493523 373.470398,79.192513 376.157867,71.073112 
	C377.141815,68.100410 376.449738,67.682060 373.783661,66.834625 
	C361.630646,62.971592 349.205597,61.713551 336.533539,61.981350 
	C325.098572,62.223007 314.542389,65.415817 304.030945,71.457298 
M237.516190,65.000313 
	C234.517487,65.000305 231.502762,65.194321 228.524338,64.948502 
	C225.208603,64.674843 224.369644,66.416801 223.959457,69.228394 
	C223.020660,75.663254 221.970703,82.086754 220.763351,88.476593 
	C217.903488,103.612503 214.929123,118.726799 211.994705,133.848602 
	C209.030228,149.125183 206.008026,164.390778 203.113464,179.680557 
	C201.922897,185.969482 200.999908,192.309036 199.916885,198.857208 
	C213.521500,198.857208 226.477112,198.857208 239.854324,198.857208 
	C248.163528,154.309006 256.463043,109.812698 264.821533,65.000290 
	C255.810654,65.000290 247.161346,65.000290 237.516190,65.000313 
M959.002380,100.556442 
	C961.198242,88.788292 963.394165,77.020134 965.596252,65.219025 
	C952.247864,65.219025 939.288940,65.219025 925.977783,65.219025 
	C917.651245,109.709129 909.352295,154.052109 901.053284,198.395020 
	C914.235535,198.395020 927.255676,198.395020 940.880005,198.395020 
	C946.981750,165.741714 952.990112,133.587967 959.002380,100.556442 
M904.006409,304.723236 
	C904.314941,303.646942 904.623474,302.570648 905.073303,301.001404 
	C901.001770,301.001404 897.183350,301.258240 893.417786,300.922577 
	C890.233521,300.638733 889.034729,302.361053 887.979187,304.776306 
	C884.222900,313.371460 880.416992,321.944977 876.411682,331.021179 
	C875.900452,320.587830 875.426147,310.908569 874.947876,301.147614 
	C869.743652,301.147614 865.123352,301.147614 860.492554,301.147614 
	C857.234253,316.698425 854.005066,332.110535 850.718933,347.794128 
	C854.561584,347.794128 857.658630,347.794128 860.500061,347.794128 
	C862.496704,337.271271 864.447021,326.992676 866.397278,316.714081 
	C866.816223,316.743530 867.235107,316.772980 867.654053,316.802460 
	C867.654053,327.148407 867.654053,337.494385 867.654053,347.765961 
	C878.096985,348.308014 878.107544,348.312927 882.009094,339.924591 
	C885.496887,332.425873 888.957886,324.914703 892.430725,317.409058 
	C891.892639,322.637238 890.973083,327.700500 889.953491,332.743561 
	C888.949341,337.710449 887.843872,342.656830 886.764954,347.695831 
	C897.248047,348.432861 897.235779,348.431824 898.015259,339.131927 
	C898.109619,338.006378 898.434509,336.901245 898.633606,335.783234 
	C900.424805,325.724792 902.211670,315.665588 904.006409,304.723236 
M234.406570,41.931183 
	C236.028397,43.305950 237.538208,44.846764 239.290100,46.028732 
	C251.318817,54.144207 274.622101,45.708984 273.378326,26.380848 
	C272.571564,13.844203 263.165009,3.140237 249.246353,7.056803 
	C232.724533,11.705865 225.010513,25.281223 234.406570,41.931183 
M967.987000,11.484356 
	C959.289673,2.790699 941.122375,6.310113 934.738953,17.514462 
	C928.732239,28.057644 930.934143,36.436996 935.333862,41.722519 
	C943.277466,51.265404 957.781616,51.514217 967.960876,43.058861 
	C975.710938,36.621338 976.659180,19.380726 967.987000,11.484356 
M242.276978,347.998749 
	C244.840973,347.672302 247.591675,347.828339 249.931595,346.922852 
	C255.460007,344.783508 258.941650,340.431000 259.884857,334.642609 
	C260.648926,329.953735 258.480865,326.153198 254.575699,323.468445 
	C261.562195,318.841217 261.686371,313.818451 260.588196,309.157501 
	C259.446198,304.310699 255.472031,301.250336 249.779114,301.066345 
	C242.000320,300.814850 234.207306,301.003540 226.303680,301.003540 
	C223.030930,316.706390 219.824356,332.091644 216.509064,347.998596 
	C225.423019,347.998596 233.373825,347.998596 242.276978,347.998749 
M1300.006470,330.660126 
	C1300.882324,327.134949 1301.758179,323.609772 1302.923462,318.919861 
	C1307.077026,329.265930 1310.807617,338.558136 1314.539307,347.853302 
	C1317.899902,347.853302 1321.197144,347.853302 1324.506836,347.853302 
	C1327.765625,332.305206 1330.995483,316.894867 1334.277466,301.236084 
	C1330.447388,301.236084 1327.347656,301.236084 1324.299316,301.236084 
	C1322.293701,310.653137 1320.338135,319.834595 1318.120850,330.245331 
	C1313.864990,319.628387 1310.122559,310.292206 1306.490601,301.231873 
	C1302.820435,301.231873 1299.528076,301.231873 1296.307983,301.231873 
	C1293.097900,316.797363 1289.936279,332.127716 1286.708008,347.780731 
	C1290.403564,347.780731 1293.503174,347.780731 1296.729858,347.780731 
	C1297.837769,342.273834 1298.918457,336.901733 1300.006470,330.660126 
M746.003540,325.653564 
	C744.605774,332.990845 743.208069,340.328125 741.781006,347.819214 
	C745.674744,347.819214 748.629639,347.819214 751.570862,347.819214 
	C753.549683,338.439301 755.491760,329.233459 757.753845,318.510803 
	C762.080444,329.266724 765.820801,338.565277 769.543396,347.819763 
	C772.950745,347.819763 776.242310,347.819763 779.491211,347.819763 
	C782.727112,332.232880 785.925415,316.827393 789.180481,301.148254 
	C785.514832,301.148254 782.556152,301.148254 779.303467,301.148254 
	C777.305420,310.401459 775.315796,319.615326 773.058105,330.070862 
	C769.250488,320.589355 766.126343,312.382202 762.580627,304.361389 
	C761.916504,302.859039 759.701233,301.615906 757.957397,301.129883 
	C755.967285,300.575256 753.703918,301.001556 751.579895,301.001556 
	C749.686218,309.109009 747.855164,316.948090 746.003540,325.653564 
M1076.420288,343.057159 
	C1084.924072,335.935791 1086.685181,326.380859 1085.963257,316.046082 
	C1085.475098,309.055145 1080.521118,302.402435 1073.759155,301.461121 
	C1066.748047,300.485107 1059.512207,301.004028 1052.381592,301.169128 
	C1051.564331,301.188019 1050.359985,303.027740 1050.071655,304.203796 
	C1048.687622,309.848602 1047.522705,315.548462 1046.343994,321.242096 
	C1044.526489,330.020233 1042.761108,338.809174 1040.890991,347.999390 
	C1048.403931,347.999390 1055.424072,348.532318 1062.313599,347.813019 
	C1066.943726,347.329559 1071.389038,345.073822 1076.420288,343.057159 
M668.190735,328.425659 
	C673.662109,328.283539 679.132812,328.064789 684.605042,328.017395 
	C692.688660,327.947388 692.689087,327.999298 693.874084,318.886414 
	C685.936707,318.886414 678.055298,318.886414 669.771851,318.886414 
	C670.341064,317.545868 670.982361,316.779877 670.910095,316.088409 
	C670.313416,310.378693 673.524658,309.703766 678.177856,309.943756 
	C684.306152,310.259827 690.463074,310.021454 696.922485,310.021454 
	C697.365417,306.979889 697.769104,304.208252 698.211182,301.172363 
	C686.195862,301.172363 674.908569,301.172363 663.210754,301.172363 
	C659.998169,316.584351 656.782959,332.008667 653.495361,347.780396 
	C666.509644,347.780396 678.608276,347.780396 690.825134,347.780396 
	C691.277466,344.819946 691.697876,342.068146 692.178040,338.925507 
	C682.997803,338.925507 674.700867,338.925507 665.666748,338.925507 
	C666.518005,335.447174 667.269836,332.375183 668.190735,328.425659 
M41.004551,311.626495 
	C38.618847,323.604919 36.233143,335.583344 33.760361,347.998962 
	C35.810703,347.998962 37.132690,347.880615 38.426662,348.020844 
	C42.553452,348.468079 45.140999,347.995697 45.376179,342.566376 
	C45.673370,335.705475 48.977375,330.099609 56.097584,327.151123 
	C58.175045,331.396912 60.625603,335.158722 61.901558,339.283783 
	C64.242294,346.851318 69.010315,349.464691 76.483055,347.971283 
	C76.934410,347.881073 77.370270,347.713226 78.416489,347.402283 
	C73.501671,338.147980 68.687233,329.082672 63.667599,319.630981 
	C70.449112,313.642792 77.138756,307.735748 84.765381,301.001312 
	C81.643715,301.001312 79.844963,301.192596 78.100220,300.966705 
	C72.020203,300.179596 67.411140,302.210266 63.356361,306.943604 
	C59.890049,310.990051 55.481819,314.229584 50.424221,318.786469 
	C51.819042,312.065704 52.920273,306.759552 54.074287,301.199066 
	C50.261585,301.199066 46.822205,301.199066 43.488705,301.199066 
	C42.633877,304.520264 41.831573,307.637421 41.004551,311.626495 
M962.372437,338.218018 
	C968.152222,338.218018 973.932007,338.218018 979.758728,338.218018 
	C980.362854,341.573608 980.928711,344.716461 981.454041,347.634430 
	C984.775208,347.634430 987.833557,347.634430 991.400330,347.634430 
	C988.849548,331.866302 986.369507,316.536133 983.856384,301.001038 
	C981.621460,301.001038 979.801025,301.125183 978.003357,300.975433 
	C974.150269,300.654358 971.605774,301.273041 969.540588,305.536102 
	C965.187378,314.522461 959.721313,322.968262 954.743591,331.654022 
	C951.733643,336.906189 948.783203,342.192413 945.677246,347.691315 
	C952.539490,348.505493 958.704895,349.268921 960.620178,340.970947 
	C960.789001,340.239532 961.539612,339.642456 962.372437,338.218018 
M524.048035,346.074738 
	C521.759949,331.071594 519.471924,316.068451 517.174072,301.001190 
	C514.508911,301.001190 512.660034,301.219177 510.881561,300.957947 
	C506.539734,300.320221 504.208008,301.915619 502.255676,306.053101 
	C499.102356,312.735779 494.845917,318.889618 491.232330,325.365601 
	C487.123077,332.729736 483.208252,340.202393 479.062012,347.900635 
	C490.403442,348.168518 490.403442,348.168518 495.417389,338.218140 
	C501.194733,338.218140 506.972046,338.218140 512.901306,338.218140 
	C513.463440,341.565765 513.991577,344.710785 514.628479,348.503479 
	C517.991577,347.943787 521.182251,347.412811 524.048035,346.074738 
M159.728348,347.998413 
	C162.021820,347.998413 164.315308,347.998413 167.273193,347.998413 
	C164.705643,332.063019 162.219986,316.635956 159.700851,301.001129 
	C158.077148,301.001129 156.744919,301.152924 155.458344,300.974823 
	C149.946060,300.211853 146.398346,301.891754 143.938202,307.443085 
	C141.012848,314.044189 136.707230,320.022461 133.182236,326.371979 
	C129.304932,333.356171 125.635246,340.455658 121.908295,347.442688 
	C129.236557,349.409576 134.446320,347.898926 136.920609,340.506500 
	C137.274841,339.448151 138.904587,338.167450 139.997269,338.115784 
	C145.260147,337.866791 150.541306,338.003754 154.546783,338.003754 
	C156.236237,341.953278 157.527603,344.972168 159.728348,347.998413 
M419.524475,301.000763 
	C416.216553,301.000763 412.908600,301.000763 409.239380,301.000763 
	C406.003296,316.650482 402.802948,332.127380 399.570312,347.760529 
	C409.599487,348.289703 409.584015,348.285461 411.637054,340.773926 
	C412.602264,337.242554 412.595551,332.235016 414.923584,330.609619 
	C417.518402,328.797974 422.266144,330.006683 426.076599,330.012726 
	C433.833191,330.025055 439.712585,326.985687 442.146820,319.333862 
	C445.047272,310.216522 442.325928,300.846344 430.484222,300.994202 
	C427.161530,301.035675 423.837921,301.000671 419.524475,301.000763 
M601.479370,301.001770 
	C596.158813,301.001770 590.838257,301.001770 585.517700,301.001770 
	C576.630859,301.001770 576.626343,301.000336 574.087402,308.930084 
	C574.017395,309.148712 574.294617,309.478516 574.558411,310.114380 
	C578.796326,310.114380 583.174805,310.114380 587.646423,310.114380 
	C585.027283,322.826813 582.484802,335.167084 579.886292,347.779633 
	C583.640808,347.779633 587.076599,347.779633 590.509583,347.779633 
	C593.153198,335.161804 595.783325,322.608795 598.447632,309.892334 
	C603.115906,309.892334 607.408081,309.892334 611.818176,309.892334 
	C612.265991,306.888397 612.677795,304.125793 613.143555,301.001770 
	C609.086304,301.001770 605.778687,301.001770 601.479370,301.001770 
M1144.999390,335.523621 
	C1147.412231,324.189819 1149.824951,312.855988 1152.347900,301.004425 
	C1149.164673,301.004425 1146.642578,300.701141 1144.252686,301.131500 
	C1143.046387,301.348724 1141.360352,302.736938 1141.113037,303.863800 
	C1137.926758,318.383606 1134.961426,332.951904 1131.883301,347.780792 
	C1135.647949,347.780792 1139.088013,347.780792 1142.514526,347.780792 
	C1143.352051,343.930817 1144.172119,340.161469 1144.999390,335.523621 
z"/>
<path fill="#1062AB" opacity="1.000000" stroke="none" 
	d="
M1.000000,261.399994 
	C2.332201,254.587860 3.705107,248.183823 4.981263,241.760544 
	C5.741041,237.936356 6.077686,234.002426 7.168676,230.283325 
	C7.561947,228.942703 9.464277,227.783356 10.937646,227.106934 
	C12.039824,226.600922 13.558419,226.999466 14.891600,226.999466 
	C370.191864,226.999329 725.492126,226.999573 1080.792358,226.999817 
	C1082.766602,226.999817 1084.740845,226.999817 1087.090210,226.999817 
	C1084.619629,239.940964 1082.236572,252.423721 1079.835083,265.003296 
	C720.180481,265.003296 361.058899,265.003296 1.468655,265.001648 
	C1.000000,263.933319 1.000000,262.866669 1.000000,261.399994 
z"/>
<path fill="#F58635" opacity="1.000000" stroke="none" 
	d="
M1226.535400,1.000012 
	C1228.173828,1.339851 1229.329102,1.777424 1230.524536,2.003596 
	C1238.029297,3.423511 1238.944336,4.025662 1237.862305,11.570035 
	C1236.830688,18.762981 1234.859985,25.854084 1232.786255,32.836792 
	C1232.374268,34.224384 1229.325195,36.093300 1227.998779,35.754864 
	C1208.741943,30.841692 1201.041870,43.324165 1197.033447,57.000137 
	C1196.419800,59.093964 1196.235962,61.313789 1195.810669,63.715923 
	C1204.518677,64.292625 1212.546509,64.824280 1221.671997,65.428619 
	C1219.775513,75.370033 1217.931519,85.036621 1216.043213,94.935127 
	C1207.296021,94.935127 1199.003296,94.935127 1190.263184,94.935127 
	C1179.492798,151.635498 1168.766479,208.103714 1158.001587,264.774750 
	C1145.054077,264.774750 1132.297485,264.774750 1118.219727,264.774750 
	C1128.812012,208.240784 1139.332031,152.092712 1149.983032,95.245316 
	C1143.774292,95.245316 1138.694580,95.245316 1133.240112,95.245316 
	C1134.894531,85.884796 1136.343018,77.067657 1138.121582,68.317596 
	C1138.379272,67.048843 1140.085205,65.365242 1141.348633,65.137680 
	C1145.865845,64.324142 1150.481201,64.054863 1155.176025,63.567581 
	C1157.677490,55.375050 1160.006226,46.802666 1162.909668,38.429638 
	C1169.643921,19.008879 1183.578125,7.588590 1203.390503,3.066872 
	C1206.409058,2.377965 1209.535522,2.161752 1212.806030,1.363454 
	C1217.356934,1.000000 1221.713745,1.000000 1226.535400,1.000012 
z"/>
<path fill="#1062AB" opacity="1.000000" stroke="none" 
	d="
M1367.000000,233.562500 
	C1366.333740,238.592926 1365.530640,243.171204 1365.037231,247.782623 
	C1364.479492,252.994766 1364.200439,258.236725 1363.740601,264.244476 
	C1305.541382,264.244476 1247.397949,264.244476 1189.062866,264.244476 
	C1191.368530,252.067810 1193.734009,239.575836 1196.115479,226.999161 
	C1253.152222,226.999161 1309.607422,226.999161 1366.531372,226.999573 
	C1367.000000,229.041672 1367.000000,231.083328 1367.000000,233.562500 
z"/>
<path fill="#0D599F" opacity="1.000000" stroke="none" 
	d="
M324.458069,349.000000 
	C317.301910,346.962280 312.042725,343.202057 311.486298,335.762543 
	C311.182343,331.699005 312.217957,327.465820 313.078156,323.399811 
	C314.645203,315.992828 316.531525,308.653351 318.305542,301.197937 
	C321.888214,301.197937 325.335785,301.197937 329.087036,301.197937 
	C326.698395,311.339783 324.306732,321.214050 322.068542,331.122955 
	C321.045624,335.651489 323.010406,338.972046 326.943634,339.941742 
	C332.120728,341.218109 338.259949,338.347748 339.749878,333.406006 
	C341.466614,327.712250 342.668182,321.858337 343.975739,316.047485 
	C345.074371,311.165009 346.004181,306.244568 347.037811,301.198944 
	C350.572571,301.198944 353.867920,301.198944 357.752533,301.198944 
	C355.357330,312.144043 353.233307,323.122803 350.492554,333.945343 
	C348.529968,341.694946 343.749084,347.108093 335.143860,348.645660 
	C331.638702,349.000000 328.277435,349.000000 324.458069,349.000000 
z"/>
<path fill="#0D5A9F" opacity="1.000000" stroke="none" 
	d="
M1211.458008,349.000000 
	C1204.696899,347.132263 1199.398071,343.723785 1198.535645,336.849121 
	C1198.011353,332.669678 1199.192383,328.192261 1200.059326,323.940857 
	C1201.606079,316.355652 1203.495117,308.840210 1205.267090,301.182709 
	C1208.868164,301.182709 1212.321289,301.182709 1215.947632,301.182709 
	C1213.613770,311.305450 1211.252441,321.201721 1209.080566,331.139404 
	C1208.222046,335.067139 1209.228027,338.370575 1213.511719,339.779755 
	C1218.591431,341.450745 1225.244629,338.475586 1226.766602,333.349579 
	C1228.510864,327.475342 1229.689941,321.427277 1230.974976,315.424866 
	C1231.789429,311.621155 1232.096680,307.690308 1233.165771,303.970032 
	C1233.520630,302.734894 1235.416504,301.458344 1236.826172,301.125610 
	C1238.868408,300.643585 1241.108887,301.002075 1244.180664,301.002075 
	C1243.420654,305.649384 1242.946167,310.065399 1241.941284,314.357239 
	C1240.213501,321.737213 1238.175781,329.045349 1236.228882,336.373260 
	C1234.325562,343.537384 1229.078735,346.832947 1222.141602,348.648193 
	C1218.638672,349.000000 1215.277466,349.000000 1211.458008,349.000000 
z"/>
<path fill="#1062AB" opacity="1.000000" stroke="none" 
	d="
M41.301720,61.348793 
	C44.026138,47.414898 46.397198,33.831936 49.180824,20.334055 
	C49.525459,18.662916 51.877823,16.546598 53.622128,16.183088 
	C59.035820,15.054882 64.589790,14.295461 70.116600,14.074186 
	C84.029076,13.517179 97.997124,12.515711 111.867744,13.204887 
	C129.640610,14.087953 147.052216,17.807278 162.092621,28.064762 
	C177.702759,38.710796 187.347092,53.575188 191.019974,72.255577 
	C195.835754,96.748833 191.195648,120.043808 180.878128,142.100021 
	C170.162979,165.006256 152.876053,181.458313 128.575211,190.047653 
	C112.609016,195.691025 96.288063,198.873962 79.346809,199.043854 
	C74.419312,199.093262 69.476776,200.130249 64.576141,199.915527 
	C48.485569,199.210541 32.411079,198.138412 15.775510,197.175217 
	C17.375441,187.741043 18.711201,178.954956 20.378090,170.232132 
	C23.483463,153.981766 26.799442,137.771729 29.993834,121.538223 
	C32.622883,108.177711 35.260448,94.818398 37.779907,81.437012 
	C39.012234,74.891838 39.984375,68.297684 41.301720,61.348793 
M148.999557,87.654213 
	C148.664642,84.739555 148.647049,81.745041 147.937210,78.924751 
	C145.499161,69.238129 141.124237,60.891804 132.581268,54.856228 
	C119.619102,45.698509 104.862595,45.224644 89.975952,45.067638 
	C86.669708,45.032768 84.647743,47.199493 84.018097,50.498592 
	C81.344017,64.509674 78.726501,78.531830 75.985580,92.529816 
	C72.783585,108.882462 69.408951,125.201462 66.244492,141.561218 
	C64.978432,148.106537 63.919201,154.702225 63.085457,161.315292 
	C62.784645,163.701294 61.977829,167.220245 66.401817,166.966751 
	C76.404633,166.393585 86.549942,166.518677 96.359909,164.787704 
	C111.093376,162.188004 123.164970,154.589951 132.320221,142.370285 
	C144.311935,126.364777 149.390564,108.378845 148.999557,87.654213 
z"/>
<path fill="#1062AB" opacity="1.000000" stroke="none" 
	d="
M872.004883,186.055283 
	C871.998596,186.656723 872.029968,186.831665 871.990540,186.988815 
	C869.226868,198.000000 869.223267,197.835007 857.940491,198.052917 
	C849.198547,198.221786 840.465759,198.869324 830.670654,199.356735 
	C831.646851,192.821945 832.376709,186.941895 833.423950,181.118942 
	C836.208923,165.632568 839.161621,150.176437 841.985046,134.696869 
	C843.383606,127.029213 844.754456,119.353218 845.929504,111.649208 
	C846.726807,106.422073 843.486938,96.962730 838.827087,94.872688 
	C834.153748,92.776634 826.689270,94.524635 821.636414,98.828850 
	C812.462952,106.643013 807.843445,117.275658 805.263306,128.306641 
	C800.132812,150.241592 796.383301,172.498306 791.894653,194.587814 
	C791.632141,195.879639 789.890015,197.826416 788.803772,197.848312 
	C777.082825,198.084686 765.355286,197.995758 752.835693,197.995758 
	C753.571289,192.253967 754.081238,185.811279 755.265503,179.495010 
	C758.702942,161.162064 762.401489,142.877945 766.017456,124.578590 
	C767.442688,117.365967 769.003174,110.227394 767.051086,102.789650 
	C765.178284,95.653778 757.591064,91.758583 750.889832,95.061409 
	C739.454163,100.697739 732.784912,110.695602 729.266785,122.223282 
	C725.549744,134.402435 723.535034,147.116150 721.040527,159.648880 
	C718.825012,170.779831 717.011902,181.990356 714.932739,193.149277 
	C714.294739,196.574036 712.568420,198.244659 708.534119,198.118607 
	C697.493042,197.773651 686.434143,197.999786 675.085999,197.999786 
	C682.814453,154.139969 690.638733,109.736206 698.492065,65.167709 
	C709.441223,65.167709 720.395569,65.167709 732.194275,65.167709 
	C731.822449,70.951958 731.458374,76.614235 731.083130,82.451210 
	C736.180054,78.352104 741.005249,74.080193 746.224365,70.361015 
	C755.255310,63.925442 765.770447,60.840870 776.573792,61.231285 
	C790.432068,61.732105 801.570374,66.632271 807.590332,83.743446 
	C813.951294,78.771027 819.861145,72.943504 826.826172,68.961609 
	C840.727844,61.014088 855.292664,57.557953 870.734802,65.865349 
	C880.976318,71.374992 884.926208,80.553215 885.836975,91.031464 
	C887.108887,105.663300 884.444092,120.051262 881.405640,134.390213 
	C878.780579,146.778824 877.158020,159.377731 874.970886,171.862396 
	C874.161987,176.479645 873.006714,181.036224 872.004883,186.055283 
z"/>
<path fill="#1062AB" opacity="1.000000" stroke="none" 
	d="
M434.603607,153.894287 
	C432.878601,159.910049 431.257629,165.637589 430.045288,171.450333 
	C428.228546,180.160995 426.698700,188.931488 424.925049,198.321472 
	C411.651764,198.321472 398.596771,198.321472 385.222107,198.321472 
	C397.199402,134.244553 409.246002,69.796967 421.418976,4.673165 
	C434.458099,4.673165 447.471130,4.673165 461.085052,4.673165 
	C454.315308,41.382236 447.495544,78.362465 440.675781,115.342697 
	C441.037476,115.487938 441.399170,115.633179 441.760864,115.778419 
	C453.645660,101.505020 465.401215,87.120529 477.508972,73.038834 
	C480.419128,69.654182 484.212921,66.733109 488.156982,64.655556 
	C490.202698,63.577961 493.473206,65.041656 496.176819,64.951256 
	C501.604492,64.769753 507.023376,64.026360 512.444946,64.036415 
	C519.180847,64.048920 525.915833,64.589325 533.266663,64.930275 
	C532.588867,66.212402 532.343323,67.149025 531.749756,67.730202 
	C519.184998,80.032410 506.610291,92.324806 493.968262,104.547485 
	C489.814087,108.563889 485.497498,112.414986 481.192963,116.272209 
	C478.942871,118.288513 478.336487,120.429665 479.691315,123.271111 
	C485.064026,134.539062 490.370636,145.838974 495.632629,157.159180 
	C501.699707,170.211502 507.699890,183.294968 513.699158,196.378616 
	C513.958252,196.943634 513.917664,197.646057 514.129456,199.011795 
	C511.321655,199.011795 508.753815,199.012436 506.185974,199.011673 
	C495.357269,199.008484 484.528564,198.991592 473.699921,199.011734 
	C471.300964,199.016190 469.885773,198.840195 468.717529,195.789673 
	C462.364624,179.201782 455.465454,162.822784 448.720093,146.385941 
	C447.878937,144.336166 446.780060,142.841141 444.429657,145.050293 
	C441.311798,147.980743 438.075745,150.785446 434.603607,153.894287 
z"/>
<path fill="#F58635" opacity="1.000000" stroke="none" 
	d="
M1231.230957,181.605713 
	C1225.434692,172.142334 1221.857544,162.507965 1220.803955,151.570724 
	C1219.149902,134.400208 1222.110107,118.291580 1230.035034,103.276001 
	C1241.559937,81.439919 1259.957764,67.944084 1284.060181,63.176620 
	C1299.373535,60.147636 1314.937866,60.616173 1329.201660,68.112976 
	C1345.250488,76.547874 1353.672119,90.273567 1356.104858,108.244576 
	C1358.543579,126.259399 1354.784180,143.139694 1347.288574,159.138885 
	C1339.136475,176.539368 1325.856201,189.352539 1307.579224,195.802780 
	C1298.788452,198.905167 1289.365967,201.124344 1280.092896,201.765030 
	C1260.931641,203.088943 1244.080200,197.263870 1231.230957,181.605713 
M1310.518311,142.980804 
	C1314.851929,132.561935 1315.997559,121.573196 1314.792725,110.570091 
	C1313.889282,102.318161 1309.005859,96.117249 1300.910522,93.060562 
	C1293.461792,90.248024 1286.588379,92.687622 1281.318115,97.431480 
	C1264.376587,112.681061 1259.450684,132.429245 1263.175659,154.208313 
	C1265.846069,169.820938 1280.949707,176.061035 1294.125366,166.564362 
	C1302.303345,160.669998 1306.760620,152.672974 1310.518311,142.980804 
z"/>
<path fill="#1062AB" opacity="1.000000" stroke="none" 
	d="
M532.681763,171.249054 
	C528.330322,160.350296 526.576538,149.648422 527.741699,138.073166 
	C528.898743,126.578659 531.277222,115.592102 536.354980,105.394135 
	C547.867004,82.273613 566.449402,68.169777 591.874390,62.877296 
	C607.265991,59.673378 622.078796,61.092316 635.962341,68.101479 
	C652.008301,76.202354 660.505005,89.788269 663.123596,107.642883 
	C665.787231,125.804428 662.489929,143.008469 654.388733,158.845184 
	C642.220703,182.632294 622.664612,197.160263 595.642761,201.103317 
	C581.618591,203.149765 568.371704,201.692398 555.709656,195.288208 
	C545.338196,190.042542 537.260742,182.594696 532.681763,171.249054 
M568.999939,141.566742 
	C569.679504,146.709549 569.525452,152.144135 571.203308,156.937485 
	C575.342041,168.761063 583.710266,172.405029 592.402649,170.634857 
	C599.813843,169.125595 605.738770,164.317673 609.900696,158.061218 
	C619.322632,143.897736 623.368408,128.088226 621.851746,111.194565 
	C621.137268,103.236649 616.703552,96.581688 609.267517,93.285126 
	C601.522217,89.851479 593.976868,92.500916 587.983887,97.695435 
	C575.037415,108.917023 570.206238,124.039047 568.999939,141.566742 
z"/>
<path fill="#F58635" opacity="1.000000" stroke="none" 
	d="
M1107.023438,78.093140 
	C1112.204590,87.278496 1111.542725,97.034698 1110.790039,106.461029 
	C1109.909424,117.490616 1107.934326,128.461227 1105.939575,139.366974 
	C1102.746460,156.825027 1099.144531,174.208267 1095.719971,191.624054 
	C1095.342773,193.542648 1094.996338,195.467255 1094.478516,198.225647 
	C1081.744507,198.225647 1068.728149,198.225647 1054.612549,198.225647 
	C1055.451294,192.244507 1056.087891,185.815674 1057.289917,179.494354 
	C1060.729858,161.402893 1064.837524,143.425903 1067.776123,125.257271 
	C1069.056274,117.341385 1070.131104,109.055641 1067.104736,100.977585 
	C1064.667725,94.472557 1059.424072,91.951302 1052.853760,94.599510 
	C1044.760864,97.861374 1038.927612,103.500458 1034.482788,110.947823 
	C1027.416260,122.787819 1024.777954,136.021149 1022.055664,149.210419 
	C1019.191650,163.086197 1016.750793,177.048935 1014.069946,190.963043 
	C1012.712097,198.010742 1012.657166,198.000031 1005.414124,197.999969 
	C994.841431,197.999878 984.268738,197.999954 972.888184,197.999954 
	C980.942566,154.375122 989.114258,110.114983 997.383423,65.326767 
	C1007.908813,65.326767 1019.640259,65.326767 1031.755981,65.326767 
	C1031.446167,71.091522 1031.135986,76.859360 1030.825928,82.627197 
	C1031.235229,82.838043 1031.644653,83.048889 1032.053955,83.259735 
	C1033.996582,81.379227 1036.002197,79.558990 1037.871948,77.608604 
	C1051.749512,63.132843 1068.894653,59.394501 1087.871582,63.123455 
	C1096.272339,64.774231 1103.093750,69.574623 1107.023438,78.093140 
z"/>
<path fill="#1062AB" opacity="1.000000" stroke="none" 
	d="
M304.345398,71.251717 
	C314.542389,65.415817 325.098572,62.223007 336.533539,61.981350 
	C349.205597,61.713551 361.630646,62.971592 373.783661,66.834625 
	C376.449738,67.682060 377.141815,68.100410 376.157867,71.073112 
	C373.470398,79.192513 371.331604,87.493523 368.701477,96.679619 
	C361.726868,94.981712 354.996826,93.480461 348.345764,91.686234 
	C341.484955,89.835403 334.999512,91.260384 328.917511,94.125725 
	C322.936951,96.943291 322.093567,103.910263 327.567902,108.808548 
	C332.103973,112.867310 337.680389,115.825279 342.986694,118.946594 
	C350.603333,123.426933 358.640686,127.420761 363.936066,134.789505 
	C370.674591,144.166443 371.368683,154.780243 368.662262,165.629974 
	C364.896057,180.727997 354.605774,190.116333 340.748047,195.967667 
	C329.111237,200.881226 316.826202,202.621582 304.290894,201.933395 
	C292.716766,201.297943 281.589508,198.477524 271.013763,193.606934 
	C268.327179,192.369629 267.438049,190.930588 268.518677,187.802612 
	C271.354431,179.594086 273.752350,171.234283 276.407837,162.666595 
	C284.942688,165.401154 292.999969,168.193039 301.185211,170.538544 
	C307.707428,172.407547 314.313171,172.317841 320.833099,169.995911 
	C328.766144,167.170792 331.261536,158.309387 324.972748,152.750519 
	C320.167877,148.503326 314.373291,145.303833 308.793030,142.022522 
	C300.125641,136.925888 291.756226,131.607986 287.039062,122.227562 
	C280.178131,108.584267 282.361420,95.621933 290.984894,83.790977 
	C294.450623,79.036156 299.630981,75.531143 304.345398,71.251717 
z"/>
<path fill="#1062AB" opacity="1.000000" stroke="none" 
	d="
M238.014130,65.000305 
	C247.161346,65.000290 255.810654,65.000290 264.821533,65.000290 
	C256.463043,109.812698 248.163528,154.309006 239.854324,198.857208 
	C226.477112,198.857208 213.521500,198.857208 199.916885,198.857208 
	C200.999908,192.309036 201.922897,185.969482 203.113464,179.680557 
	C206.008026,164.390778 209.030228,149.125183 211.994705,133.848602 
	C214.929123,118.726799 217.903488,103.612503 220.763351,88.476593 
	C221.970703,82.086754 223.020660,75.663254 223.959457,69.228394 
	C224.369644,66.416801 225.208603,64.674843 228.524338,64.948502 
	C231.502762,65.194321 234.517487,65.000305 238.014130,65.000305 
z"/>
<path fill="#F58635" opacity="1.000000" stroke="none" 
	d="
M959.000488,100.995323 
	C952.990112,133.587967 946.981750,165.741714 940.880005,198.395020 
	C927.255676,198.395020 914.235535,198.395020 901.053284,198.395020 
	C909.352295,154.052109 917.651245,109.709129 925.977783,65.219025 
	C939.288940,65.219025 952.247864,65.219025 965.596252,65.219025 
	C963.394165,77.020134 961.198242,88.788292 959.000488,100.995323 
z"/>
<path fill="#0D599F" opacity="1.000000" stroke="none" 
	d="
M904.003113,305.164917 
	C902.211670,315.665588 900.424805,325.724792 898.633606,335.783234 
	C898.434509,336.901245 898.109619,338.006378 898.015259,339.131927 
	C897.235779,348.431824 897.248047,348.432861 886.764954,347.695831 
	C887.843872,342.656830 888.949341,337.710449 889.953491,332.743561 
	C890.973083,327.700500 891.892639,322.637238 892.430725,317.409058 
	C888.957886,324.914703 885.496887,332.425873 882.009094,339.924591 
	C878.107544,348.312927 878.096985,348.308014 867.654053,347.765961 
	C867.654053,337.494385 867.654053,327.148407 867.654053,316.802460 
	C867.235107,316.772980 866.816223,316.743530 866.397278,316.714081 
	C864.447021,326.992676 862.496704,337.271271 860.500061,347.794128 
	C857.658630,347.794128 854.561584,347.794128 850.718933,347.794128 
	C854.005066,332.110535 857.234253,316.698425 860.492554,301.147614 
	C865.123352,301.147614 869.743652,301.147614 874.947876,301.147614 
	C875.426147,310.908569 875.900452,320.587830 876.411682,331.021179 
	C880.416992,321.944977 884.222900,313.371460 887.979187,304.776306 
	C889.034729,302.361053 890.233521,300.638733 893.417786,300.922577 
	C897.183350,301.258240 901.001770,301.001404 905.073303,301.001404 
	C904.623474,302.570648 904.314941,303.646942 904.003113,305.164917 
z"/>
<path fill="#1062AB" opacity="1.000000" stroke="none" 
	d="
M234.154266,41.651718 
	C225.010513,25.281223 232.724533,11.705865 249.246353,7.056803 
	C263.165009,3.140237 272.571564,13.844203 273.378326,26.380848 
	C274.622101,45.708984 251.318817,54.144207 239.290100,46.028732 
	C237.538208,44.846764 236.028397,43.305950 234.154266,41.651718 
z"/>
<path fill="#F28736" opacity="1.000000" stroke="none" 
	d="
M968.249023,11.746283 
	C976.659180,19.380726 975.710938,36.621338 967.960876,43.058861 
	C957.781616,51.514217 943.277466,51.265404 935.333862,41.722519 
	C930.934143,36.436996 928.732239,28.057644 934.738953,17.514462 
	C941.122375,6.310113 959.289673,2.790699 968.249023,11.746283 
z"/>
<path fill="#0C599F" opacity="1.000000" stroke="none" 
	d="
M241.800812,347.998657 
	C233.373825,347.998596 225.423019,347.998596 216.509064,347.998596 
	C219.824356,332.091644 223.030930,316.706390 226.303680,301.003540 
	C234.207306,301.003540 242.000320,300.814850 249.779114,301.066345 
	C255.472031,301.250336 259.446198,304.310699 260.588196,309.157501 
	C261.686371,313.818451 261.562195,318.841217 254.575699,323.468445 
	C258.480865,326.153198 260.648926,329.953735 259.884857,334.642609 
	C258.941650,340.431000 255.460007,344.783508 249.931595,346.922852 
	C247.591675,347.828339 244.840973,347.672302 241.800812,347.998657 
M239.437180,329.020874 
	C236.794693,329.020874 234.152206,329.020874 231.278244,329.020874 
	C230.467270,332.646149 229.703491,336.060516 228.740143,340.367004 
	C234.393326,339.874634 239.690475,339.955963 244.649231,338.700653 
	C246.501175,338.231812 247.929260,334.764496 248.708801,332.388214 
	C248.886230,331.847351 245.667053,329.967529 243.828766,329.083313 
	C242.886703,328.630157 241.541611,329.014862 239.437180,329.020874 
M236.006973,310.070282 
	C235.080811,312.928680 234.154663,315.787079 233.114075,318.998596 
	C237.495651,318.998596 241.156128,319.032135 244.815704,318.988922 
	C248.323883,318.947510 250.542236,316.862915 250.560623,313.642487 
	C250.579575,310.323975 247.853378,309.754211 244.905563,309.970551 
	C242.254166,310.165100 239.577942,310.021057 236.006973,310.070282 
z"/>
<path fill="#0D599F" opacity="1.000000" stroke="none" 
	d="
M1300.002930,331.094879 
	C1298.918457,336.901733 1297.837769,342.273834 1296.729858,347.780731 
	C1293.503174,347.780731 1290.403564,347.780731 1286.708008,347.780731 
	C1289.936279,332.127716 1293.097900,316.797363 1296.307983,301.231873 
	C1299.528076,301.231873 1302.820435,301.231873 1306.490601,301.231873 
	C1310.122559,310.292206 1313.864990,319.628387 1318.120850,330.245331 
	C1320.338135,319.834595 1322.293701,310.653137 1324.299316,301.236084 
	C1327.347656,301.236084 1330.447388,301.236084 1334.277466,301.236084 
	C1330.995483,316.894867 1327.765625,332.305206 1324.506836,347.853302 
	C1321.197144,347.853302 1317.899902,347.853302 1314.539307,347.853302 
	C1310.807617,338.558136 1307.077026,329.265930 1302.923462,318.919861 
	C1301.758179,323.609772 1300.882324,327.134949 1300.002930,331.094879 
z"/>
<path fill="#0D599F" opacity="1.000000" stroke="none" 
	d="
M746.013855,325.220367 
	C747.855164,316.948090 749.686218,309.109009 751.579895,301.001556 
	C753.703918,301.001556 755.967285,300.575256 757.957397,301.129883 
	C759.701233,301.615906 761.916504,302.859039 762.580627,304.361389 
	C766.126343,312.382202 769.250488,320.589355 773.058105,330.070862 
	C775.315796,319.615326 777.305420,310.401459 779.303467,301.148254 
	C782.556152,301.148254 785.514832,301.148254 789.180481,301.148254 
	C785.925415,316.827393 782.727112,332.232880 779.491211,347.819763 
	C776.242310,347.819763 772.950745,347.819763 769.543396,347.819763 
	C765.820801,338.565277 762.080444,329.266724 757.753845,318.510803 
	C755.491760,329.233459 753.549683,338.439301 751.570862,347.819214 
	C748.629639,347.819214 745.674744,347.819214 741.781006,347.819214 
	C743.208069,340.328125 744.605774,332.990845 746.013855,325.220367 
z"/>
<path fill="#0D599F" opacity="1.000000" stroke="none" 
	d="
M1076.168701,343.334106 
	C1071.389038,345.073822 1066.943726,347.329559 1062.313599,347.813019 
	C1055.424072,348.532318 1048.403931,347.999390 1040.890991,347.999390 
	C1042.761108,338.809174 1044.526489,330.020233 1046.343994,321.242096 
	C1047.522705,315.548462 1048.687622,309.848602 1050.071655,304.203796 
	C1050.359985,303.027740 1051.564331,301.188019 1052.381592,301.169128 
	C1059.512207,301.004028 1066.748047,300.485107 1073.759155,301.461121 
	C1080.521118,302.402435 1085.475098,309.055145 1085.963257,316.046082 
	C1086.685181,326.380859 1084.924072,335.935791 1076.168701,343.334106 
M1073.609131,329.866058 
	C1074.079346,327.657867 1074.761475,325.470734 1074.983521,323.237854 
	C1076.045532,312.560455 1073.599243,309.747437 1063.055908,308.994568 
	C1060.468018,308.809784 1059.386841,309.724579 1058.878052,312.538452 
	C1057.240112,321.600189 1055.138672,330.578094 1053.207031,339.586487 
	C1062.917114,340.998840 1071.196045,337.744843 1073.609131,329.866058 
z"/>
<path fill="#0D5A9F" opacity="1.000000" stroke="none" 
	d="
M668.106201,328.864441 
	C667.269836,332.375183 666.518005,335.447174 665.666748,338.925507 
	C674.700867,338.925507 682.997803,338.925507 692.178040,338.925507 
	C691.697876,342.068146 691.277466,344.819946 690.825134,347.780396 
	C678.608276,347.780396 666.509644,347.780396 653.495361,347.780396 
	C656.782959,332.008667 659.998169,316.584351 663.210754,301.172363 
	C674.908569,301.172363 686.195862,301.172363 698.211182,301.172363 
	C697.769104,304.208252 697.365417,306.979889 696.922485,310.021454 
	C690.463074,310.021454 684.306152,310.259827 678.177856,309.943756 
	C673.524658,309.703766 670.313416,310.378693 670.910095,316.088409 
	C670.982361,316.779877 670.341064,317.545868 669.771851,318.886414 
	C678.055298,318.886414 685.936707,318.886414 693.874084,318.886414 
	C692.689087,327.999298 692.688660,327.947388 684.605042,328.017395 
	C679.132812,328.064789 673.662109,328.283539 668.106201,328.864441 
z"/>
<path fill="#0D599F" opacity="1.000000" stroke="none" 
	d="
M41.016911,311.190521 
	C41.831573,307.637421 42.633877,304.520264 43.488705,301.199066 
	C46.822205,301.199066 50.261585,301.199066 54.074287,301.199066 
	C52.920273,306.759552 51.819042,312.065704 50.424221,318.786469 
	C55.481819,314.229584 59.890049,310.990051 63.356361,306.943604 
	C67.411140,302.210266 72.020203,300.179596 78.100220,300.966705 
	C79.844963,301.192596 81.643715,301.001312 84.765381,301.001312 
	C77.138756,307.735748 70.449112,313.642792 63.667599,319.630981 
	C68.687233,329.082672 73.501671,338.147980 78.416489,347.402283 
	C77.370270,347.713226 76.934410,347.881073 76.483055,347.971283 
	C69.010315,349.464691 64.242294,346.851318 61.901558,339.283783 
	C60.625603,335.158722 58.175045,331.396912 56.097584,327.151123 
	C48.977375,330.099609 45.673370,335.705475 45.376179,342.566376 
	C45.140999,347.995697 42.553452,348.468079 38.426662,348.020844 
	C37.132690,347.880615 35.810703,347.998962 33.760361,347.998962 
	C36.233143,335.583344 38.618847,323.604919 41.016911,311.190521 
z"/>
<path fill="#0D5A9F" opacity="1.000000" stroke="none" 
	d="
M962.196228,338.600494 
	C961.539612,339.642456 960.789001,340.239532 960.620178,340.970947 
	C958.704895,349.268921 952.539490,348.505493 945.677246,347.691315 
	C948.783203,342.192413 951.733643,336.906189 954.743591,331.654022 
	C959.721313,322.968262 965.187378,314.522461 969.540588,305.536102 
	C971.605774,301.273041 974.150269,300.654358 978.003357,300.975433 
	C979.801025,301.125183 981.621460,301.001038 983.856384,301.001038 
	C986.369507,316.536133 988.849548,331.866302 991.400330,347.634430 
	C987.833557,347.634430 984.775208,347.634430 981.454041,347.634430 
	C980.928711,344.716461 980.362854,341.573608 979.758728,338.218018 
	C973.932007,338.218018 968.152222,338.218018 962.196228,338.600494 
M973.982178,317.398346 
	C971.888794,321.049500 969.795410,324.700623 967.501038,328.702332 
	C971.587646,328.702332 974.653992,328.702332 978.283447,328.702332 
	C977.633179,323.643860 977.030334,318.954010 976.312927,313.373108 
	C975.134583,315.094604 974.600708,315.874634 973.982178,317.398346 
z"/>
<path fill="#0D59A0" opacity="1.000000" stroke="none" 
	d="
M524.210449,346.478271 
	C521.182251,347.412811 517.991577,347.943787 514.628479,348.503479 
	C513.991577,344.710785 513.463440,341.565765 512.901306,338.218140 
	C506.972046,338.218140 501.194733,338.218140 495.416321,338.225098 
	C490.403442,348.168518 490.403442,348.168518 479.062012,347.900635 
	C483.208252,340.202393 487.123077,332.729736 491.232330,325.365601 
	C494.845917,318.889618 499.102356,312.735779 502.255676,306.053101 
	C504.208008,301.915619 506.539734,300.320221 510.881561,300.957947 
	C512.660034,301.219177 514.508911,301.001190 517.174072,301.001190 
	C519.471924,316.068451 521.759949,331.071594 524.210449,346.478271 
M505.659943,329.000641 
	C507.720734,329.000641 509.781494,329.000641 511.814819,329.000641 
	C510.991669,323.599548 510.262299,318.814026 509.337250,312.744476 
	C506.076782,318.840942 503.490753,323.676300 500.643219,329.000641 
	C502.493042,329.000641 503.634094,329.000641 505.659943,329.000641 
z"/>
<path fill="#0D599F" opacity="1.000000" stroke="none" 
	d="
M159.273651,347.994720 
	C157.527603,344.972168 156.236237,341.953278 154.546783,338.003754 
	C150.541306,338.003754 145.260147,337.866791 139.997269,338.115784 
	C138.904587,338.167450 137.274841,339.448151 136.920609,340.506500 
	C134.446320,347.898926 129.236557,349.409576 121.908295,347.442688 
	C125.635246,340.455658 129.304932,333.356171 133.182236,326.371979 
	C136.707230,320.022461 141.012848,314.044189 143.938202,307.443085 
	C146.398346,301.891754 149.946060,300.211853 155.458344,300.974823 
	C156.744919,301.152924 158.077148,301.001129 159.700851,301.001129 
	C162.219986,316.635956 164.705643,332.063019 167.273193,347.998413 
	C164.315308,347.998413 162.021820,347.998413 159.273651,347.994720 
M153.998657,326.522705 
	C153.347198,322.469574 152.695740,318.416443 152.044281,314.363312 
	C151.670685,314.396301 151.297073,314.429260 150.923477,314.462219 
	C148.401459,319.223969 145.879440,323.985687 142.716446,329.957672 
	C147.184219,328.955658 150.584610,328.193024 153.998657,326.522705 
z"/>
<path fill="#0D5AA0" opacity="1.000000" stroke="none" 
	d="
M420.019592,301.000763 
	C423.837921,301.000671 427.161530,301.035675 430.484222,300.994202 
	C442.325928,300.846344 445.047272,310.216522 442.146820,319.333862 
	C439.712585,326.985687 433.833191,330.025055 426.076599,330.012726 
	C422.266144,330.006683 417.518402,328.797974 414.923584,330.609619 
	C412.595551,332.235016 412.602264,337.242554 411.637054,340.773926 
	C409.584015,348.285461 409.599487,348.289703 399.570312,347.760529 
	C402.802948,332.127380 406.003296,316.650482 409.239380,301.000763 
	C412.908600,301.000763 416.216553,301.000763 420.019592,301.000763 
M431.403046,310.955017 
	C427.194122,310.055695 422.985199,309.156372 418.488098,308.195465 
	C417.442505,313.353271 416.606812,317.475586 415.603058,322.427094 
	C420.380402,321.753815 424.150085,321.560547 427.727875,320.629669 
	C431.867188,319.552795 433.487305,315.599121 431.403046,310.955017 
z"/>
<path fill="#0C599F" opacity="1.000000" stroke="none" 
	d="
M601.975220,301.001770 
	C605.778687,301.001770 609.086304,301.001770 613.143555,301.001770 
	C612.677795,304.125793 612.265991,306.888397 611.818176,309.892334 
	C607.408081,309.892334 603.115906,309.892334 598.447632,309.892334 
	C595.783325,322.608795 593.153198,335.161804 590.509583,347.779633 
	C587.076599,347.779633 583.640808,347.779633 579.886292,347.779633 
	C582.484802,335.167084 585.027283,322.826813 587.646423,310.114380 
	C583.174805,310.114380 578.796326,310.114380 574.558411,310.114380 
	C574.294617,309.478516 574.017395,309.148712 574.087402,308.930084 
	C576.626343,301.000336 576.630859,301.001770 585.517700,301.001770 
	C590.838257,301.001770 596.158813,301.001770 601.975220,301.001770 
z"/>
<path fill="#0D599F" opacity="1.000000" stroke="none" 
	d="
M1144.995728,335.957886 
	C1144.172119,340.161469 1143.352051,343.930817 1142.514526,347.780792 
	C1139.088013,347.780792 1135.647949,347.780792 1131.883301,347.780792 
	C1134.961426,332.951904 1137.926758,318.383606 1141.113037,303.863800 
	C1141.360352,302.736938 1143.046387,301.348724 1144.252686,301.131500 
	C1146.642578,300.701141 1149.164673,301.004425 1152.347900,301.004425 
	C1149.824951,312.855988 1147.412231,324.189819 1144.995728,335.957886 
z"/>
<path fill="#FFFFFF" opacity="1.000000" stroke="none" 
	d="
M148.999451,88.134247 
	C149.390564,108.378845 144.311935,126.364777 132.320221,142.370285 
	C123.164970,154.589951 111.093376,162.188004 96.359909,164.787704 
	C86.549942,166.518677 76.404633,166.393585 66.401817,166.966751 
	C61.977829,167.220245 62.784645,163.701294 63.085457,161.315292 
	C63.919201,154.702225 64.978432,148.106537 66.244492,141.561218 
	C69.408951,125.201462 72.783585,108.882462 75.985580,92.529816 
	C78.726501,78.531830 81.344017,64.509674 84.018097,50.498592 
	C84.647743,47.199493 86.669708,45.032768 89.975952,45.067638 
	C104.862595,45.224644 119.619102,45.698509 132.581268,54.856228 
	C141.124237,60.891804 145.499161,69.238129 147.937210,78.924751 
	C148.647049,81.745041 148.664642,84.739555 148.999451,88.134247 
z"/>
<path fill="#FFFFFF" opacity="1.000000" stroke="none" 
	d="
M1310.310059,143.319366 
	C1306.760620,152.672974 1302.303345,160.669998 1294.125366,166.564362 
	C1280.949707,176.061035 1265.846069,169.820938 1263.175659,154.208313 
	C1259.450684,132.429245 1264.376587,112.681061 1281.318115,97.431480 
	C1286.588379,92.687622 1293.461792,90.248024 1300.910522,93.060562 
	C1309.005859,96.117249 1313.889282,102.318161 1314.792725,110.570091 
	C1315.997559,121.573196 1314.851929,132.561935 1310.310059,143.319366 
z"/>
<path fill="#FFFFFF" opacity="1.000000" stroke="none" 
	d="
M569.000000,141.091522 
	C570.206238,124.039047 575.037415,108.917023 587.983887,97.695435 
	C593.976868,92.500916 601.522217,89.851479 609.267517,93.285126 
	C616.703552,96.581688 621.137268,103.236649 621.851746,111.194565 
	C623.368408,128.088226 619.322632,143.897736 609.900696,158.061218 
	C605.738770,164.317673 599.813843,169.125595 592.402649,170.634857 
	C583.710266,172.405029 575.342041,168.761063 571.203308,156.937485 
	C569.525452,152.144135 569.679504,146.709549 569.000000,141.091522 
z"/>
<path fill="#FFFFFF" opacity="1.000000" stroke="none" 
	d="
M239.907928,329.020905 
	C241.541611,329.014862 242.886703,328.630157 243.828766,329.083313 
	C245.667053,329.967529 248.886230,331.847351 248.708801,332.388214 
	C247.929260,334.764496 246.501175,338.231812 244.649231,338.700653 
	C239.690475,339.955963 234.393326,339.874634 228.740143,340.367004 
	C229.703491,336.060516 230.467270,332.646149 231.278244,329.020874 
	C234.152206,329.020874 236.794693,329.020874 239.907928,329.020905 
z"/>
<path fill="#FFFFFF" opacity="1.000000" stroke="none" 
	d="
M236.459808,310.048340 
	C239.577942,310.021057 242.254166,310.165100 244.905563,309.970551 
	C247.853378,309.754211 250.579575,310.323975 250.560623,313.642487 
	C250.542236,316.862915 248.323883,318.947510 244.815704,318.988922 
	C241.156128,319.032135 237.495651,318.998596 233.114075,318.998596 
	C234.154663,315.787079 235.080811,312.928680 236.459808,310.048340 
z"/>
<path fill="#FFFFFF" opacity="1.000000" stroke="none" 
	d="
M1073.341675,330.156311 
	C1071.196045,337.744843 1062.917114,340.998840 1053.211426,339.587402 
	C1055.138672,330.578094 1057.240112,321.600189 1058.878052,312.538452 
	C1059.386841,309.724579 1060.468018,308.809784 1063.055908,308.994568 
	C1073.599243,309.747437 1076.045532,312.560455 1074.983521,323.237854 
	C1074.761475,325.470734 1074.079346,327.657867 1073.341675,330.156311 
z"/>
<path fill="#FFFFFF" opacity="1.000000" stroke="none" 
	d="
M974.024536,317.026489 
	C974.600708,315.874634 975.134583,315.094604 976.312927,313.373108 
	C977.030334,318.954010 977.633179,323.643860 978.283447,328.702332 
	C974.653992,328.702332 971.587646,328.702332 967.501038,328.702332 
	C969.795410,324.700623 971.888794,321.049500 974.024536,317.026489 
z"/>
<path fill="#FFFFFF" opacity="1.000000" stroke="none" 
	d="
M505.217529,329.000641 
	C503.634094,329.000641 502.493042,329.000641 500.643219,329.000641 
	C503.490753,323.676300 506.076782,318.840942 509.337250,312.744476 
	C510.262299,318.814026 510.991669,323.599548 511.814819,329.000641 
	C509.781494,329.000641 507.720734,329.000641 505.217529,329.000641 
z"/>
<path fill="#FFFFFF" opacity="1.000000" stroke="none" 
	d="
M153.991821,326.976562 
	C150.584610,328.193024 147.184219,328.955658 142.716446,329.957672 
	C145.879440,323.985687 148.401459,319.223969 150.923477,314.462219 
	C151.297073,314.429260 151.670685,314.396301 152.044281,314.363312 
	C152.695740,318.416443 153.347198,322.469574 153.991821,326.976562 
z"/>
<path fill="#FFFFFF" opacity="1.000000" stroke="none" 
	d="
M431.699219,311.232666 
	C433.487305,315.599121 431.867188,319.552795 427.727875,320.629669 
	C424.150085,321.560547 420.380402,321.753815 415.603058,322.427094 
	C416.606812,317.475586 417.442505,313.353271 418.488098,308.195465 
	C422.985199,309.156372 427.194122,310.055695 431.699219,311.232666 
z"/>
</svg>